<svg width="617" height="96" xmlns="http://www.w3.org/2000/svg" xmlns:xlink="http://www.w3.org/1999/xlink" overflow="hidden"><defs><clipPath id="clip0"><rect x="0" y="0" width="617" height="96"/></clipPath></defs><g clip-path="url(#clip0)"><rect x="0" y="0" width="617" height="95.9741" fill="#FFFFFF"/><g><g><g><path d="M34.2297 63.739 22.9286 52.4479 34.2297 41.1567 37.0203 43.9474 28.5297 52.4479 37.0203 60.9484 34.2297 63.739Z" transform="matrix(1 0 0 1.01025 13 0)"/><path d="M60.7703 63.739 57.9797 60.9484 66.4703 52.4479 57.9797 43.9474 60.7703 41.1567 72.0713 52.4479 60.7703 63.739Z" transform="matrix(1 0 0 1.01025 13 0)"/><path d="M35.1228 51.0788 59.8892 51.0788 59.8892 55.043 35.1228 55.043Z" transform="matrix(0.382278 -0.931903 0.922444 0.386198 -6.67286 77.3091)"/><path d="M7.91666 16.8229 7.91666 78.177 87.0833 78.177 87.0833 16.8229ZM76.1979 22.7604C77.291 22.7604 78.177 23.6465 78.177 24.7396 78.177 25.8327 77.291 26.7187 76.1979 26.7187 75.1048 26.7187 74.2187 25.8327 74.2187 24.7396 74.2187 23.6465 75.1048 22.7604 76.1979 22.7604ZM69.2708 22.7604C70.3639 22.7604 71.25 23.6465 71.25 24.7396 71.25 25.8327 70.3639 26.7187 69.2708 26.7187 68.1777 26.7187 67.2916 25.8327 67.2916 24.7396 67.2916 23.6465 68.1777 22.7604 69.2708 22.7604ZM62.3437 22.7604C63.4368 22.7604 64.3229 23.6465 64.3229 24.7396 64.3229 25.8327 63.4368 26.7187 62.3437 26.7187 61.2506 26.7187 60.3645 25.8327 60.3645 24.7396 60.3645 23.6465 61.2506 22.7604 62.3437 22.7604ZM81.1458 72.2395 13.8542 72.2395 13.8542 32.6562 81.1458 32.6562Z" transform="matrix(1 0 0 1.01025 13 0)"/></g></g></g><g><g><g><path d="M8.33109 28.3257 14.1629 28.3257 14.1629 31.6581 8.33109 31.6581Z" transform="matrix(1.01277 0 0 1 254 7.9978)"/><path d="M8.33109 21.6608 14.1629 21.6608 14.1629 24.9933 8.33109 24.9933Z" transform="matrix(1.01277 0 0 1 254 7.9978)"/><path d="M8.33109 34.9906 14.1629 34.9906 14.1629 38.323 8.33109 38.323Z" transform="matrix(1.01277 0 0 1 254 7.9978)"/><path d="M8.33109 54.9852 14.1629 54.9852 14.1629 58.3176 8.33109 58.3176Z" transform="matrix(1.01277 0 0 1 254 7.9978)"/><path d="M8.33109 48.3203 14.1629 48.3203 14.1629 51.6528 8.33109 51.6528Z" transform="matrix(1.01277 0 0 1 254 7.9978)"/><path d="M8.33109 41.6555 14.1629 41.6555 14.1629 44.9879 8.33109 44.9879Z" transform="matrix(1.01277 0 0 1 254 7.9978)"/><path d="M65.8156 48.3203 71.6474 48.3203 71.6474 51.6528 65.8156 51.6528Z" transform="matrix(1.01277 0 0 1 254 7.9978)"/><path d="M65.8156 54.9852 71.6474 54.9852 71.6474 58.3176 65.8156 58.3176Z" transform="matrix(1.01277 0 0 1 254 7.9978)"/><path d="M65.8156 41.6555 71.6474 41.6555 71.6474 44.9879 65.8156 44.9879Z" transform="matrix(1.01277 0 0 1 254 7.9978)"/><path d="M65.8156 21.6608 71.6474 21.6608 71.6474 24.9933 65.8156 24.9933Z" transform="matrix(1.01277 0 0 1 254 7.9978)"/><path d="M65.8156 34.9906 71.6474 34.9906 71.6474 38.323 65.8156 38.323Z" transform="matrix(1.01277 0 0 1 254 7.9978)"/><path d="M65.8156 28.3257 71.6474 28.3257 71.6474 31.6581 65.8156 31.6581Z" transform="matrix(1.01277 0 0 1 254 7.9978)"/><path d="M41.6555 8.33109 44.9879 8.33109 44.9879 14.1629 41.6555 14.1629Z" transform="matrix(1.01277 0 0 1 254 7.9978)"/><path d="M54.9852 8.33109 58.3176 8.33109 58.3176 14.1629 54.9852 14.1629Z" transform="matrix(1.01277 0 0 1 254 7.9978)"/><path d="M48.3203 8.33109 51.6528 8.33109 51.6528 14.1629 48.3203 14.1629Z" transform="matrix(1.01277 0 0 1 254 7.9978)"/><path d="M34.9906 8.33109 38.323 8.33109 38.323 14.1629 34.9906 14.1629Z" transform="matrix(1.01277 0 0 1 254 7.9978)"/><path d="M21.6608 8.33109 24.9933 8.33109 24.9933 14.1629 21.6608 14.1629Z" transform="matrix(1.01277 0 0 1 254 7.9978)"/><path d="M28.3257 8.33109 31.6581 8.33109 31.6581 14.1629 28.3257 14.1629Z" transform="matrix(1.01277 0 0 1 254 7.9978)"/><path d="M28.3257 65.8156 31.6581 65.8156 31.6581 71.6474 28.3257 71.6474Z" transform="matrix(1.01277 0 0 1 254 7.9978)"/><path d="M21.6608 65.8156 24.9933 65.8156 24.9933 71.6474 21.6608 71.6474Z" transform="matrix(1.01277 0 0 1 254 7.9978)"/><path d="M34.9906 65.8156 38.323 65.8156 38.323 71.6474 34.9906 71.6474Z" transform="matrix(1.01277 0 0 1 254 7.9978)"/><path d="M41.6555 65.8156 44.9879 65.8156 44.9879 71.6474 41.6555 71.6474Z" transform="matrix(1.01277 0 0 1 254 7.9978)"/><path d="M48.3203 65.8156 51.6528 65.8156 51.6528 71.6474 48.3203 71.6474Z" transform="matrix(1.01277 0 0 1 254 7.9978)"/><path d="M54.9852 65.8156 58.3176 65.8156 58.3176 71.6474 54.9852 71.6474Z" transform="matrix(1.01277 0 0 1 254 7.9978)"/><path d="M29.1588 29.1588 50.8197 29.1588 50.8197 50.8197 29.1588 50.8197Z" transform="matrix(1.01277 0 0 1 254 7.9978)"/><path d="M59.1507 17.4953 20.8277 17.4953C18.9873 17.4953 17.4953 18.9873 17.4953 20.8277L17.4953 59.1507C17.4953 60.9912 18.9873 62.4832 20.8277 62.4832L59.1507 62.4832C60.9912 62.4832 62.4832 60.9912 62.4832 59.1507L62.4832 20.8277C62.4832 18.9873 60.9912 17.4953 59.1507 17.4953ZM54.1521 54.1521 25.8264 54.1521 25.8264 25.8264 54.1521 25.8264Z" transform="matrix(1.01277 0 0 1 254 7.9978)"/></g></g></g><text font-family="Fira Code,Fira Code_MSFontService,sans-serif" font-weight="400" font-size="43" transform="matrix(1 0 0 0.99973 335.387 62)">2023</text><text font-family="Fira Code,Fira Code_MSFontService,sans-serif" font-weight="700" font-size="37" transform="matrix(1 0 0 0.99973 112.26 57)">NNSZCP</text><text font-family="Noto Sans SC,Noto Sans CJK SC,Noto Sans CJK SC_MSFontService,sans-serif" font-weight="700" font-size="9" transform="matrix(1 0 0 0.99973 115.25 67)">南宁三中青山校区程序设计竞赛</text><rect x="584.5" y="27.4926" width="12" height="42.9883" stroke="#000000" stroke-width="1.33369" stroke-miterlimit="8" fill="none"/><path d="M545 48.4869C545 36.0638 555.297 25.993 568 25.993 580.703 25.993 591 36.0638 591 48.4869 591 60.9099 580.703 70.9808 568 70.9808 555.297 70.9808 545 60.9099 545 48.4869ZM556.25 48.4869C556.25 54.6984 561.511 59.7339 568 59.7339 574.489 59.7339 579.75 54.6984 579.75 48.4869 579.75 42.2753 574.489 37.2399 568 37.2399 561.511 37.2399 556.25 42.2753 556.25 48.4869Z" fill-rule="evenodd"/><g><g><g><path d="M170.399 93.0786C172.739 91.1698 175.197 89.3616 178.094 88.4201 178.613 88.2516 179.215 88.1484 179.899 88.1106 182.006 87.9937 184.031 88.2447 185.974 88.8638 187.315 89.2894 188.631 89.9317 189.939 90.4527 190.924 90.8474 192.038 90.8732 193.055 90.7519 193.459 90.7038 193.907 90.5464 194.401 90.2799 195.484 89.6952 196.555 89.0762 197.612 88.4227 200.687 86.526 203.659 84.6155 206.529 82.6912 207.193 82.2459 207.586 81.6569 207.708 80.9243 207.922 79.6424 206.272 78.9872 205.34 78.9098 204.849 78.8685 204.364 78.9597 203.888 79.1832 201.431 80.3388 199.475 81.4823 198.02 82.6139 196.759 83.5958 195.552 84.4289 194.398 85.1133 192.691 86.1245 190.341 86.9886 188.283 86.9421 187.315 86.9215 186.325 87.004 185.342 86.8235 183.511 86.4899 181.797 85.8975 180.201 85.0462 179.735 84.7969 179.229 84.6404 178.682 84.5768 177.325 84.4169 175.999 84.5312 174.705 84.9199 173.75 85.207 172.435 85.8923 170.761 86.9757 168.52 88.4219 165.922 90.1501 162.968 92.1603 162.732 92.3207 162.424 92.3297 162.179 92.1835 160.284 91.0451 158.269 89.7804 156.135 88.3892 155.919 88.2482 155.706 88.1338 155.498 88.0461 154.933 87.8062 154.791 87.1614 155.315 86.8003 157.693 85.1511 160.079 83.5923 162.473 82.1238 163.925 81.2313 166.084 80.1067 167.817 80.1067 168.447 80.1067 169.079 80.1075 169.713 80.1092 171.155 80.1144 172.989 80.6973 174.183 81.2958 174.961 81.6861 175.725 82.0326 176.477 82.3353 178.997 83.3541 181.963 82.6758 184.282 81.2777 187.26 79.479 189.944 77.7224 192.332 76.0079 192.867 75.6227 193.35 75.1997 193.782 74.7389 194.215 74.2746 194.987 73.1112 194.677 72.4225 194.183 71.3237 193.368 70.8216 192.229 70.9162 191.595 70.9677 190.906 71.3701 190.351 71.7106 187.475 73.4724 184.571 75.0819 181.973 76.9623 180.916 77.7293 179.984 78.2847 179.177 78.6286 178.115 79.0809 176.946 79.4214 175.672 79.6501 175.058 79.7601 174.381 79.7352 173.642 79.5753 172.49 79.3242 171.682 79.0938 171.22 78.884 169.698 78.1953 168.008 77.3673 166.396 77.3234 166.102 77.3148 165.818 77.2676 165.545 77.1816 165.091 77.0423 164.686 77.3157 164.214 77.3183 162.403 77.3338 160.355 78.3604 158.911 79.4179 156.739 81.0051 154.232 82.6113 151.392 84.2363 151.125 84.3876 150.85 84.4891 150.566 84.5407 150.481 84.5557 150.394 84.543 150.319 84.5046 149.519 84.1099 148.676 83.723 147.925 83.2561 146.283 82.2364 144.628 81.2192 142.96 80.2047 142.835 80.1291 142.778 79.9775 142.82 79.8358 142.849 79.7395 142.909 79.6638 142.998 79.6088 145.459 78.1282 147.778 76.5883 150.081 74.8782 152.096 73.3795 154.201 72.7656 156.682 72.6418 157.484 72.6031 158.219 72.8533 159.014 72.9436 159.349 72.9814 159.677 73.0562 159.997 73.168 161.113 73.5601 162.314 74.0708 163.6 74.7002 165.076 75.4198 166.716 75.4095 168.282 75.2599 169.404 75.1542 170.655 74.6176 171.656 74.0476 174.452 72.4535 177.158 70.6015 179.92 68.8733 182.095 67.5113 184.31 66.1167 186.565 64.6894 187.77 63.9242 189.338 63.392 191.267 63.0928 191.862 62.9999 192.8 62.9758 194.081 63.0205 195.027 63.0532 195.898 63.1951 196.694 63.4461 198.01 63.8623 199.34 64.4951 200.684 65.3446 202.108 66.2448 202.913 67.3179 203.295 68.899 203.484 69.6849 203.66 70.5043 203.824 71.3572 203.88 71.6524 204.164 71.8461 204.458 71.7898 204.465 71.7885 204.472 71.787 204.479 71.7854 204.822 71.7055 205.129 71.5945 205.493 71.592 206.311 71.5851 207.184 71.5782 208.111 71.5713 210.174 71.5584 212.555 72.1182 214.304 73.2118 214.993 73.6426 215.521 74.3313 216.112 74.8962 217.391 76.1214 217.882 77.7723 218.127 79.4721 218.168 79.7541 218.162 80.0336 218.109 80.3104 217.737 82.2837 216.734 83.8778 215.266 85.281 213.798 86.6893 212.472 88.1957 210.871 89.4493 209.163 90.7855 207.55 91.8344 206.032 92.5962 204.35 93.4397 202.521 94.1723 200.584 94.5231 199.836 94.6572 199.151 94.6864 198.528 94.6108 197.001 94.4233 195.71 94.0803 194.654 93.5816 193.439 93.0064 192.036 92.7123 190.728 92.5601 189.479 92.4157 188.135 92.6556 186.694 93.2798 185.285 93.8885 184.048 94.5583 182.982 95.2892 180.918 96.7053 178.801 98.1033 176.742 99.4575 176.168 99.8341 175.62 100.028 175.099 100.04 174.263 100.061 173.549 99.8582 172.956 99.4317 171.069 98.0732 169.147 96.7818 167.188 95.5574 167.011 95.4473 167.01 95.3356 167.186 95.2221 168.284 94.5076 169.35 93.9324 170.399 93.0786Z" transform="matrix(1.00017 0 0 1 316.714 -32.6826)"/></g></g></g><text font-family="CMU Serif,CMU Serif_MSFontService,sans-serif" font-weight="500" font-size="59" transform="matrix(1 0 0 0.99973 438.59 62)">|</text></g></svg>